<?xml version="1.0" encoding="UTF-8"?>
<svg id="Layer_2" data-name="Layer 2" xmlns="http://www.w3.org/2000/svg" viewBox="0 0 107.51 93.14">
  <defs>
    <style>
      .cls-1 {
        fill: #fff;
        stroke-width: 0px;
      }
    </style>
  </defs>
  <g id="Layer_1-2" data-name="Layer 1">
    <g>
      <path class="cls-1" d="m19.13,65.64c-7.41.29-11.85-7.26-7.97-13.51-1.56-2.01-3.21-3.95-4.66-6.03C2.37,40.15-.09,33.63,0,26.29.16,12.84,10.38,1.62,23.75.18c8.26-.89,15.58,1.65,22.29,6.23,2.13,1.45,4.09,3.14,6.16,4.74,1.58-1.27,3.19-2.66,4.9-3.9C62.88,3.04,69.25.46,76.48.08c13.54-.72,25.88,9.59,27.5,23.03.35,2.88.36,5.75-.23,8.6-.15.73-.03,1.26.56,1.77,1.47,1.28,2.57,2.81,3,4.76,1.13,5.18-2.51,9.86-7.81,10.03-.19,0-.37,0-.69,0,.07,2.54-.58,4.82-2.41,6.64-1.83,1.82-4.07,2.57-6.74,2.36.12,2.73-.7,5-2.71,6.78-2.02,1.78-4.39,2.3-7.08,1.93-.09.57-.15,1.08-.26,1.57-.84,3.75-4,6.3-7.88,6.49-.59.03-1.29.34-1.71.75-5.34,5.19-10.66,10.4-15.95,15.65-2.57,2.55-5.57,3.33-8.94,2.19-3.39-1.14-5.26-3.68-5.78-7.21-.04-.26-.06-.52-.09-.78,0-.03-.05-.06-.07-.08-5.55.86-10.49-2.94-10.42-9.23-6.97-.95-9.6-3.59-9.63-9.69Zm-5.21-16.25c1.1-1.16,2.08-2.24,3.1-3.27,1.94-1.97,3.87-3.97,5.9-5.84.46-.42,1.4-.66,1.98-.5.53.15,1.16.94,1.22,1.5.06.58-.37,1.36-.82,1.82-3.37,3.45-6.8,6.86-10.22,10.26-1.32,1.31-1.91,2.86-1.5,4.69.41,1.82,1.55,3.08,3.34,3.6,1.88.55,3.55.07,4.94-1.32,3.42-3.41,6.83-6.83,10.24-10.24.74-.74,1.46-1.5,2.23-2.21.87-.81,1.96-.8,2.71-.04.73.75.7,1.84-.09,2.71-.35.39-.74.75-1.11,1.12-3.78,3.79-7.58,7.56-11.35,11.36-2.11,2.13-2.12,5.14-.08,7.1,1.95,1.87,4.91,1.8,6.94-.24,4.05-4.05,8.07-8.13,12.1-12.19,1-1,2.02-1.1,2.86-.31.86.8.8,1.94-.19,2.95-1.6,1.63-3.21,3.25-4.82,4.87-2.45,2.47-4.94,4.91-7.35,7.42-2.59,2.7-1.55,6.99,1.95,8.07,1.96.6,3.67.07,5.12-1.39,3.99-4.01,7.99-8,11.99-11.99.29-.29.57-.61.92-.82.83-.5,1.67-.43,2.35.28.65.67.71,1.47.23,2.27-.21.34-.53.63-.82.92-3.75,3.76-7.52,7.52-11.26,11.29-1.83,1.84-1.77,4.79.09,6.66,1.87,1.87,4.77,1.91,6.64.07,4.97-4.87,9.94-9.75,14.9-14.63.25-.25.48-.52.63-.68-3.44-3.5-6.82-6.89-10.15-10.34-4.32-4.48-2.33-11.86,3.63-13.61.35-.1.71-.2,1.11-.32-.86-2.54-.75-4.98.61-7.27,1.36-2.29,3.45-3.53,6.06-4.02-.9-3.29-.42-6.2,1.95-8.6,2.4-2.43,5.33-2.97,8.59-2.06.06-.19.11-.33.14-.47,1.42-6.94,9.73-8.94,14.37-3.85,2.06,2.27,4.32,4.36,6.5,6.52.22.22.47.4.89.76,0-1.68.08-3.11-.01-4.52-.77-12-11.22-22.11-24.95-20.96-6.56.55-12.22,3.26-17.34,7.23-1.08.83-2.1,1.75-3.21,2.67,2.74,2.46,5.36,4.8,7.97,7.16,1.38,1.25,1.39,2.36-.03,3.56-3.67,3.14-7.92,4.22-12.66,3.41-2.4-.41-4.51-1.48-6.36-3.1-2.46,2.38-4.85,4.7-7.25,7.01-1.05,1.01-2.15,1.08-2.96.23-.8-.85-.68-1.92.38-2.95,2.74-2.66,5.48-5.32,8.22-7.97,1.07-1.03,1.9-1.09,3.06-.19.38.3.71.66,1.06,1,3.08,3.03,9.39,3.36,12.77.52-.23-.15-.46-.27-.65-.45-3.05-2.76-6.1-5.53-9.15-8.29-5.75-5.21-12.17-9.07-20.08-9.86C18.04,2.81,7.6,9.4,4.72,20.46c-2.96,11.39,1.84,20.46,9.19,28.94Zm81.13-.79c-.2-.45-.41-1.53-1.05-2.19-5.03-5.18-10.12-10.31-15.24-15.4-1.75-1.74-4.45-1.68-6.17,0-1.76,1.73-1.86,4.45-.08,6.25,5.04,5.07,10.11,10.1,15.2,15.12,1.35,1.33,3.02,1.45,4.69.75,1.71-.72,2.54-2.12,2.65-4.53Zm-25.54-7.78c-2.45.14-3.87.96-4.64,2.71-.79,1.8-.45,3.47.9,4.86,2.58,2.65,5.22,5.25,7.84,7.87,1.56,1.56,3.1,3.14,4.67,4.69,1.8,1.79,4.59,1.82,6.36.11,1.66-1.6,1.73-4.55.01-6.23-4.25-4.15-8.36-8.46-12.61-12.61-.77-.76-1.95-1.1-2.52-1.41Zm12.83-13.75c0,1.61.43,2.61,1.31,3.49,4.22,4.18,8.42,8.38,12.63,12.58,1.75,1.74,4.36,1.8,6.13.14,1.69-1.58,1.83-4.28.3-6.09-.41-.48-.88-.92-1.33-1.37-3.81-3.8-7.61-7.61-11.43-11.4-1.42-1.41-3.12-1.76-4.95-1-1.74.73-2.62,2.14-2.67,3.66Zm-20.02,25.15c-1.76.07-3.15.91-3.91,2.59-.8,1.77-.51,3.46.82,4.87,1.62,1.71,3.31,3.35,4.98,5.01,1.48,1.48,2.92,3.01,4.46,4.41,1.81,1.65,4.51,1.49,6.16-.25,1.65-1.74,1.62-4.41-.12-6.15-3.05-3.08-6.13-6.13-9.19-9.2-.87-.87-1.91-1.27-3.21-1.29Z"/>
      <path class="cls-1" d="m7.51,26.86c.03-2.59.53-5.06,1.49-7.45.46-1.14,1.38-1.6,2.4-1.26,1.06.36,1.57,1.37,1.12,2.55-2.51,6.64-.75,12.62,2.8,18.33.22.35.47.68.66,1.04.52.97.28,2.01-.57,2.56-.85.55-1.95.36-2.57-.55-2.51-3.64-4.37-7.57-5.01-11.99-.15-1.07-.21-2.15-.32-3.23Z"/>
      <path class="cls-1" d="m31.61,36.2c0,.99-.84,1.87-1.84,1.9-1.04.03-1.95-.88-1.93-1.92.02-1,.88-1.83,1.89-1.83,1.01,0,1.86.85,1.87,1.85Z"/>
      <path class="cls-1" d="m14.44,15.84c-1.01.02-1.87-.79-1.9-1.8-.03-1.04.72-1.87,1.76-1.92,1.07-.05,1.96.78,1.97,1.84,0,1.01-.81,1.86-1.83,1.89Z"/>
    </g>
  </g>
</svg>