<?xml version="1.0" encoding="UTF-8"?>
<svg id="Layer_2" data-name="Layer 2" xmlns="http://www.w3.org/2000/svg" viewBox="0 0 33.55 33.79">
  <defs>
    <style>
      .cls-1, .cls-2 {
        stroke-width: 0px;
      }

      .cls-2 {
        fill: #fff;
      }
    </style>
  </defs>
  <g id="Layer_1-2" data-name="Layer 1">
    <g>
      <path class="cls-1" d="m22.63,1.13c-1.36-.5-2.8-.76-4.2-1.13h-3.36c-.24.06-.47.15-.71.19C5.19,1.52-1.11,10.1.16,19.55c1.19,8.88,9.69,15.27,18.76,14.1,7.77-1.01,13.66-7.12,14.54-15.11.81-7.33-3.84-14.84-10.83-17.41Zm6.82,17.01c-.67,6.07-5.14,10.72-11.04,11.48-6.89.89-13.35-3.96-14.25-10.71-.96-7.18,3.82-13.7,10.78-14.71.18-.03.36-.09.54-.14h2.55c1.07.28,2.16.48,3.19.86,5.31,1.95,8.84,7.66,8.23,13.22Z"/>
      <path class="cls-1" d="m16.78,25.4c-1.54-1.39-3.04-2.76-4.55-4.13-.8-.73-1.61-1.46-2.41-2.19-1.36-1.26-1.79-3.23-1.08-4.94.69-1.67,2.32-2.73,4.12-2.66.89.03,1.71.33,2.41.88.34.26.66.55.99.82.38.31.63.31,1,0,.25-.2.49-.42.74-.62,1.9-1.57,4.45-1.43,6.03.34,1.58,1.78,1.47,4.51-.3,6.16-1.52,1.42-3.07,2.8-4.61,4.2-.77.7-1.55,1.41-2.35,2.14Z"/>
      <path class="cls-2" d="m22.4,15.25c0,.77-.77,1.27-1.54,1.27s.11-.58-.21-1.27c-.34-.73-.41-1.39.36-1.39s1.39.62,1.39,1.39Z"/>
    </g>
  </g>
</svg>