<?xml version="1.0" encoding="UTF-8"?>
<svg id="Layer_2" data-name="Layer 2" xmlns="http://www.w3.org/2000/svg" viewBox="0 0 33.55 33.79">
  <defs>
    <style>
      .cls-1 {
        fill: #fff;
        stroke-width: 0px;
      }
    </style>
  </defs>
  <g id="Layer_1-2" data-name="Layer 1">
    <g>
      <path class="cls-1" d="m22.63,1.13c-1.36-.5-2.8-.76-4.2-1.13h-3.36c-.24.06-.47.15-.71.19C5.19,1.52-1.11,10.1.16,19.55c1.19,8.88,9.69,15.27,18.76,14.1,7.77-1.01,13.66-7.12,14.54-15.11.81-7.33-3.84-14.84-10.83-17.41Zm6.82,17.01c-.67,6.07-5.14,10.72-11.04,11.48-6.89.89-13.35-3.96-14.25-10.71-.96-7.18,3.82-13.7,10.78-14.71.18-.03.36-.09.54-.14h2.55c1.07.28,2.16.48,3.19.86,5.31,1.95,8.84,7.66,8.23,13.22Z"/>
      <g>
        <polygon class="cls-1" points="16.78 25.4 16.78 25.4 16.77 25.4 16.78 25.4"/>
        <path class="cls-1" d="m24.03,12.9c-1.58-1.77-4.13-1.91-6.03-.34-.25.2-.49.42-.74.62-.37.31-.62.31-1,0-.33-.27-.65-.56-.99-.82-.7-.55-1.52-.85-2.41-.88-1.8-.07-3.43.99-4.12,2.66-.71,1.71-.28,3.68,1.08,4.94.8.73,1.61,1.46,2.41,2.19,1.51,1.37,3.01,2.74,4.54,4.13.8-.73,1.58-1.44,2.34-2.14,1.54-1.4,3.09-2.78,4.61-4.2,1.77-1.65,1.88-4.38.3-6.16Zm-3.17,3.62c-.77,0,.11-.58-.21-1.27-.34-.73-.41-1.39.36-1.39s1.39.62,1.39,1.39-.77,1.27-1.54,1.27Z"/>
      </g>
    </g>
  </g>
</svg>