<?xml version="1.0" encoding="UTF-8"?>
<svg id="Layer_2" data-name="Layer 2" xmlns="http://www.w3.org/2000/svg" viewBox="0 0 61.4 54.93">
  <defs>
    <style>
      .cls-1 {
        stroke-width: 0px;
      }
    </style>
  </defs>
  <g id="Layer_1-2" data-name="Layer 1">
    <g>
      <path class="cls-1" d="m61.4,14.64v32.97c-.04.15-.1.3-.12.45-.65,3.87-4.08,6.85-8.01,6.86-15.05.02-30.09.02-45.14,0-4.38,0-8.09-3.69-8.1-8.07-.03-12.93-.03-25.85,0-38.78C.03,3.69,3.75.02,8.13.01c13.05-.02,26.09-.02,39.14,0,3.99,0,7.51,3.17,8,7.14.05.38.21.53.55.65,2.46.88,4.15,2.56,5.07,5,.22.59.34,1.22.5,1.83Zm-3.86,7.75c0-2.23,0-4.37,0-6.5-.01-2.82-1.88-4.68-4.72-4.68-14.75,0-29.49,0-44.24,0-2.82,0-4.7,1.87-4.7,4.7,0,10.15,0,20.3,0,30.45,0,.47.05.96.17,1.42.53,2.04,2.26,3.3,4.51,3.3,6.29,0,12.59,0,18.88,0,8.47,0,16.94,0,25.42,0,2.59,0,4.52-1.68,4.64-4.19.1-2.19.02-4.39.02-6.59,0-.03-.04-.07-.1-.15-.2,0-.44,0-.68,0-3.36,0-6.71,0-10.07,0-.82,0-1.64,0-2.45-.07-4.86-.4-8.63-5.27-7.81-10.09.77-4.54,4.35-7.57,8.95-7.58,3.8,0,7.59,0,11.39,0,.24,0,.47,0,.8,0ZM3.91,8.52c.1-.02.17-.02.21-.05,1.49-.87,3.11-1.15,4.83-1.15,13.86.02,27.72,0,41.58,0h.85c-.09-.3-.14-.55-.25-.78-.86-1.84-2.35-2.69-4.35-2.69-12.72,0-25.44,0-38.17,0-.16,0-.32,0-.48,0-2.48.14-4.35,2.17-4.23,4.64Zm53.58,27.69v-9.91c-.1-.02-.16-.04-.22-.04-4.13,0-8.27-.03-12.4.02-2.49.03-4.59,2.23-4.69,4.73-.11,2.85,2.08,5.2,4.93,5.22,3.99.03,7.99,0,11.98,0,.12,0,.24-.02.39-.03Z"/>
      <path class="cls-1" d="m43.89,31.38c0-1.11.91-2,2.02-2,1.11,0,2,.92,1.99,2.03,0,1.11-.93,2.02-2.03,2-1.11-.01-2-.92-1.99-2.04Z"/>
    </g>
  </g>
</svg>