<?xml version="1.0" encoding="UTF-8"?>
<svg id="Layer_2" data-name="Layer 2" xmlns="http://www.w3.org/2000/svg" viewBox="0 0 60.26 51.8">
  <defs>
    <style>
      .cls-1 {
        fill: #fff;
        stroke-width: 0px;
      }
    </style>
  </defs>
  <g id="Layer_1-2" data-name="Layer 1">
    <g id="Layer_1-2" data-name="Layer 1-2">
      <g>
        <path class="cls-1" d="m.03,40.28c1.4-1.19,2.83-2.35,4.21-3.57,3.41-3.01,6.8-6.04,10.2-9.06.23-.21.48-.4.72-.61,3.07-2.77,6.56-2.92,10.21-1.5,2.7,1.05,5.36,2.21,8.21,2.78,2.01.4,4.06.63,6.08,1.02,1.07.21,2.13.52,3.14.93,1.74.71,2.99,1.83,2.62,4.15.44-.42.78-.7,1.08-1.02,2.12-2.26,4.25-4.51,6.76-6.35.95-.7,2.02-1.25,3.09-1.76.74-.35,1.57-.34,2.34,0,1.17.51,1.8,1.74,1.5,3.19-.2.95-.48,1.91-.9,2.78-2.02,4.16-4.49,8.06-7.53,11.53-4.2,4.8-9.57,7.05-15.99,6.3-3.28-.39-6.55-.96-9.8-1.57-5.86-1.1-11.2.1-16.07,3.49l-1.02.69s-.07.04-.17.1c-.14-.18-.3-.37-.45-.57-2.66-3.51-5.32-7.03-7.99-10.54-.08-.11-.18-.2-.27-.31v-.12l.03.02Zm9.51,6.78c.29-.16.52-.3.76-.43,4.45-2.47,9.21-3.53,14.27-2.84,3.55.48,7.07,1.16,10.61,1.71,5.81.91,10.62-.97,14.33-5.45,2.41-2.91,4.44-6.12,6.23-9.46.22-.41.4-.83.6-1.24-.46.17-.83.38-1.14.67-2.05,1.94-4.14,3.84-6.11,5.85-1.92,1.96-4.17,2.99-6.91,2.99h-13.75v-3.49c4.46-.15,8.9-.07,13.13-1.7-.21-.16-.41-.28-.63-.33-1.2-.28-2.39-.63-3.61-.8-2.7-.38-5.39-.78-7.97-1.69-1.79-.63-3.53-1.38-5.32-2.04-2.39-.88-4.64-.88-6.68.99-3.07,2.8-6.2,5.53-9.32,8.29-1.05.93-2.12,1.85-3.2,2.8,1.57,2.07,3.1,4.1,4.69,6.19l.02-.02Z"/>
        <path class="cls-1" d="m42.5,3.29c.74-.68,1.38-1.42,2.16-1.96,3.89-2.77,9.38-1.03,11.25,3.57,1.41,3.47.72,6.66-1.54,9.53-.87,1.1-1.82,2.16-2.87,3.1-2.94,2.62-5.94,5.16-8.91,7.73-.1-.03-.17-.03-.21-.07-3.14-2.75-6.31-5.46-9.39-8.28-1.06-.97-1.97-2.14-2.77-3.34-2.26-3.41-2.04-7.79.36-10.75,2.74-3.38,8.47-4.13,11.69.19.08.11.17.22.23.29h0Zm-.04,17.31c.1-.05.16-.07.2-.1,2.28-1.97,4.59-3.92,6.84-5.93,1.16-1.03,2.19-2.19,2.91-3.59.98-1.92.96-3.82-.25-5.62-1.49-2.21-4.45-2.45-6.21-.48-.67.76-1.1,1.74-1.6,2.64-.15.27-.26.42-.6.4-.82-.05-1.64-.08-2.47-.07-.38,0-.55-.12-.65-.48-.3-1.03-.82-1.95-1.59-2.71-.96-.95-2.11-1.31-3.44-1-2.2.51-3.67,2.79-3.4,5.23.2,1.81,1.11,3.25,2.32,4.52,1.2,1.26,2.48,2.45,3.77,3.61,1.36,1.23,2.79,2.4,4.17,3.58Z"/>
      </g>
    </g>
  </g>
</svg>