<?xml version="1.0" encoding="UTF-8"?>
<svg id="Layer_2" data-name="Layer 2" xmlns="http://www.w3.org/2000/svg" viewBox="0 0 87.16 25.08">
  <defs>
    <style>
      .cls-1 {
        fill: #7b64dd;
      }

      .cls-1, .cls-2 {
        stroke-width: 0px;
      }

      .cls-2 {
        fill: #a396ed;
      }
    </style>
  </defs>
  <g id="Layer_1-2" data-name="Layer 1">
    <g>
      <path class="cls-2" d="m12.55,9.37c-1.03-.94-2.05-1.86-3.06-2.78-.54-.49-1.08-.98-1.62-1.47-.91-.84-1.2-2.17-.72-3.32C7.62.67,8.71-.04,9.92,0c.6.02,1.15.22,1.62.59.23.18.44.37.67.55.25.21.42.21.67,0,.17-.14.33-.28.5-.42,1.27-1.06,2.99-.96,4.05.23,1.07,1.19.99,3.04-.2,4.14-1.02.95-2.06,1.88-3.1,2.82-.52.47-1.04.95-1.58,1.44Z"/>
      <g>
        <g>
          <path class="cls-1" d="m10.82,25.08h-4.33c0-.43-.01-.85,0-1.27.02-.72-.24-1.31-.75-1.81-1.03-1.01-2.04-2.04-3.06-3.06-.11-.11-.2-.23-.27-.36-.77-1.4-1.54-2.81-2.3-4.22-.06-.12-.1-.27-.11-.41C0,11.64,0,9.34,0,7.03c0-.58.35-.97.86-.97.51,0,.87.39.87.96,0,1.79,0,3.59,0,5.38,0,.16.05.35.14.47,1.53,1.97,3.08,3.93,4.62,5.89.02.03.05.05.09.1.22-.17.43-.34.67-.53-.49-.62-.97-1.23-1.44-1.84-.46-.58-.91-1.16-1.37-1.74-.15-.19-.18-.94-.06-1.14.17-.27.54-.28.79-.01.5.52.99,1.05,1.48,1.58,1.24,1.32,2.47,2.65,3.71,3.97.31.33.45.69.45,1.15-.01,1.5,0,2.99,0,4.49,0,.09,0,.18,0,.29Z"/>
          <path class="cls-1" d="m3.47,13.51c-.27-.34-.55-.69-.81-1.04-.05-.06-.06-.17-.06-.25,0-2.1,0-4.2,0-6.3,0-.43.26-.72.64-.72.39,0,.66.29.66.73,0,2.25,0,4.51,0,6.76,0,.11-.07.23-.12.33-.09.16-.19.32-.3.49Z"/>
          <path class="cls-1" d="m6.04,13.27c-.35-.43-.72-.73-1.25-.72-.01-.04-.03-.06-.03-.09,0-1.33,0-2.67,0-4,0-.38.28-.66.63-.67.37,0,.66.27.66.67,0,1.55,0,3.1,0,4.65,0,.03,0,.06-.02.16Z"/>
          <path class="cls-1" d="m8.22,15.59c-.44-.47-.84-.89-1.22-1.32-.04-.04-.07-.11-.07-.17,0-.61-.01-1.22,0-1.84.01-.33.31-.58.63-.58.34,0,.64.25.65.6.01,1.08,0,2.16,0,3.31Z"/>
        </g>
        <g>
          <path class="cls-1" d="m17.84,18.34c.24.19.45.36.68.53.79-1.01,1.57-1.99,2.34-2.98.77-.98,1.55-1.97,2.31-2.96.11-.15.19-.37.19-.56.01-1.8,0-3.61,0-5.41,0-.44.24-.75.63-.87.35-.11.75.02.94.35.09.15.15.35.15.53,0,2.34,0,4.69,0,7.03,0,.11-.04.23-.09.33-.78,1.43-1.56,2.86-2.34,4.29-.06.12-.15.22-.25.32-1.02,1.02-2.03,2.05-3.06,3.06-.51.5-.77,1.09-.75,1.81.01.41,0,.83,0,1.26h-4.32c0-.08-.01-.17-.01-.26,0-1.51,0-3.03,0-4.54,0-.43.14-.78.43-1.1,1.71-1.83,3.42-3.66,5.13-5.49.06-.07.12-.14.19-.19.31-.21.71-.02.74.35.04.46-.04.85-.36,1.24-.88,1.05-1.7,2.14-2.57,3.25Z"/>
          <path class="cls-1" d="m21.64,13.5c-.13-.2-.25-.36-.36-.54-.04-.07-.07-.16-.07-.25,0-2.27,0-4.54,0-6.81,0-.42.28-.71.66-.7.37,0,.64.29.64.69,0,2.12,0,4.24,0,6.35,0,.08-.01.17-.06.23-.27.35-.54.69-.81,1.03Z"/>
          <path class="cls-1" d="m20.34,12.55c-.56-.01-.93.29-1.29.73,0-.12-.01-.17-.01-.22,0-1.51,0-3.03,0-4.54,0-.17.08-.38.18-.51.17-.22.42-.27.68-.16.28.11.42.33.42.63,0,.7,0,1.41,0,2.11,0,.65,0,1.29,0,1.97Z"/>
          <path class="cls-1" d="m16.88,15.59c0-1.15,0-2.22,0-3.28,0-.36.31-.63.65-.62.34,0,.62.27.63.62.02.59,0,1.19,0,1.78,0,.06-.03.14-.07.19-.39.42-.78.84-1.22,1.32Z"/>
        </g>
      </g>
    </g>
    <g>
      <path class="cls-2" d="m34.22,20.25l-.58.57c-.37-.39-.79-.58-1.28-.58-.42,0-.78.14-1.07.42-.29.28-.43.62-.43,1.03s.15.77.45,1.06.66.43,1.1.43c.28,0,.52-.06.72-.18s.35-.31.47-.56h-1.25v-.77h2.17v.18c0,.38-.09.73-.29,1.07s-.45.6-.76.77-.67.27-1.09.27c-.45,0-.85-.1-1.2-.29-.35-.19-.63-.47-.83-.83s-.31-.75-.31-1.16c0-.57.19-1.07.57-1.49.45-.5,1.03-.75,1.75-.75.38,0,.73.07,1.05.21.28.12.54.32.81.6Z"/>
      <path class="cls-2" d="m35.22,19.55h.81v4.31h-.81v-4.31Z"/>
      <path class="cls-2" d="m36.63,19.55h.84l1.08,3.06,1.1-3.06h.84l-1.55,4.31h-.79l-1.53-4.31Z"/>
      <path class="cls-2" d="m41.16,19.55h2.35v.8h-1.54v.78h1.54v.79h-1.54v1.13h1.54v.81h-2.35v-4.31Z"/>
      <path class="cls-2" d="m45.95,19.55h.83v1.63h1.44v-1.63h.83v4.31h-.83v-1.89h-1.44v1.89h-.83v-4.31Z"/>
      <path class="cls-2" d="m52.07,19.44c.61,0,1.13.22,1.57.66s.66.98.66,1.61-.22,1.16-.65,1.6-.96.65-1.58.65-1.18-.22-1.61-.67c-.43-.45-.64-.98-.64-1.59,0-.41.1-.79.3-1.14.2-.35.47-.62.82-.82.35-.2.72-.3,1.13-.3Zm0,.8c-.4,0-.73.14-1.01.42-.27.28-.41.63-.41,1.06,0,.48.17.85.51,1.13.27.22.57.33.92.33.39,0,.72-.14.99-.42s.41-.63.41-1.04-.14-.76-.41-1.04c-.28-.28-.61-.43-1.01-.43Z"/>
      <path class="cls-2" d="m55.07,19.55h.87c.47,0,.81.04,1.02.13.21.09.37.23.49.42.12.2.18.43.18.7,0,.3-.08.55-.24.75s-.37.34-.64.42c-.16.04-.45.07-.86.07v1.83h-.82v-4.31Zm.82,1.68h.26c.21,0,.35-.01.43-.04s.14-.08.19-.15.07-.15.07-.25c0-.17-.06-.29-.19-.37-.09-.06-.27-.08-.52-.08h-.23v.88Z"/>
      <path class="cls-2" d="m58.44,19.55h2.35v.8h-1.54v.78h1.54v.79h-1.54v1.13h1.54v.81h-2.35v-4.31Z"/>
      <path class="cls-2" d="m67.2,20.31l-.57.55c-.39-.41-.83-.62-1.32-.62-.41,0-.76.14-1.04.42-.28.28-.42.63-.42,1.04,0,.29.06.54.19.76.12.22.3.4.53.53.23.13.48.19.76.19.24,0,.46-.04.65-.13s.41-.25.65-.49l.56.58c-.32.31-.62.53-.9.65s-.61.18-.97.18c-.67,0-1.22-.21-1.65-.64-.43-.42-.64-.97-.64-1.63,0-.43.1-.81.29-1.15s.47-.6.83-.81.75-.3,1.17-.3c.36,0,.7.08,1.03.23.33.15.61.36.85.64Z"/>
      <path class="cls-2" d="m67.91,19.55h.83v1.63h1.44v-1.63h.83v4.31h-.83v-1.89h-1.44v1.89h-.83v-4.31Z"/>
      <path class="cls-2" d="m73.31,19.55h.83l1.66,4.31h-.85l-.34-.89h-1.76l-.35.89h-.85l1.66-4.31Zm.42,1.14l-.58,1.48h1.15l-.57-1.48Z"/>
      <path class="cls-2" d="m76.49,19.55h.87c.48,0,.81.04,1.02.13.2.08.36.23.49.42.12.2.18.43.18.7,0,.28-.07.52-.2.71-.14.19-.34.33-.61.43l1.02,1.92h-.9l-.97-1.83h-.08v1.83h-.82v-4.31Zm.82,1.68h.26c.26,0,.44-.03.54-.1.1-.07.15-.18.15-.34,0-.09-.02-.18-.07-.25-.05-.07-.11-.12-.2-.15-.08-.03-.23-.05-.45-.05h-.23v.88Z"/>
      <path class="cls-2" d="m79.86,19.55h.81v4.31h-.81v-4.31Z"/>
      <path class="cls-2" d="m81.17,19.55h2.38v.81h-.79v3.5h-.83v-3.5h-.76v-.81Z"/>
      <path class="cls-2" d="m83.81,19.55h.88l.8,1.55.8-1.55h.87l-1.26,2.44v1.87h-.83v-1.87l-1.27-2.44Z"/>
    </g>
    <g>
      <path class="cls-1" d="m42.56,4.99l-1.73,1.71c-1.1-1.16-2.38-1.74-3.84-1.74-1.27,0-2.34.42-3.2,1.27-.86.84-1.29,1.87-1.29,3.08s.45,2.31,1.34,3.17,1.99,1.3,3.3,1.3c.85,0,1.57-.18,2.15-.54s1.05-.92,1.41-1.68h-3.74v-2.31h6.5l.02.54c0,1.13-.29,2.2-.88,3.22s-1.34,1.79-2.28,2.32-2.02.8-3.28.8c-1.34,0-2.54-.29-3.59-.87-1.05-.58-1.88-1.41-2.5-2.49s-.92-2.24-.92-3.49c0-1.71.57-3.2,1.7-4.46,1.34-1.51,3.09-2.26,5.24-2.26,1.12,0,2.18.21,3.16.62.83.35,1.63.96,2.43,1.81Z"/>
      <path class="cls-1" d="m47.08,2.88h2.5v4.88h4.32V2.88h2.49v12.93h-2.49v-5.67h-4.32v5.67h-2.5V2.88Z"/>
      <path class="cls-1" d="m72.57,5.15l-1.72,1.64c-1.17-1.24-2.49-1.86-3.95-1.86-1.24,0-2.28.42-3.12,1.27-.85.84-1.27,1.89-1.27,3.12,0,.86.19,1.63.56,2.3s.9,1.19,1.59,1.57c.69.38,1.45.57,2.28.57.71,0,1.37-.13,1.96-.4s1.24-.75,1.95-1.46l1.67,1.74c-.96.93-1.86,1.58-2.71,1.94s-1.82.54-2.91.54c-2.01,0-3.65-.64-4.94-1.91-1.28-1.28-1.92-2.91-1.92-4.9,0-1.29.29-2.43.87-3.44s1.42-1.81,2.5-2.42,2.26-.91,3.51-.91c1.07,0,2.09.23,3.08.68s1.84,1.09,2.55,1.92Z"/>
    </g>
  </g>
</svg>